<svg width="17" height="17" viewBox="0 0 17 17" fill="none" xmlns="http://www.w3.org/2000/svg">
<path d="M14.467 9.58007L14.1895 12.9125C14.0862 13.9322 14.0037 14.7119 12.197 14.7061L3.81042 14.679C2.00377 14.6731 1.92629 13.8929 1.82959 12.8726L1.57369 9.5384C1.52215 8.9849 1.69714 8.47212 2.01175 8.07981C2.01843 8.07316 2.01843 8.07316 2.02512 8.06652C2.39323 7.62104 2.94747 7.34283 3.56746 7.34483L12.4874 7.37366C13.1074 7.37567 13.6532 7.65743 14.0118 8.09193C14.0184 8.09862 14.0251 8.1053 14.025 8.11197C14.3504 8.50636 14.5288 9.02027 14.467 9.58007Z" stroke="#262626" stroke-width="1.5" stroke-miterlimit="10"/>
<path d="M2.35959 7.62747L2.37068 4.19416C2.37801 1.9275 2.94651 1.36267 5.21316 1.37L6.05982 1.37273C6.90649 1.37547 7.099 1.62943 7.41762 2.05713L8.26062 3.19319C8.47304 3.47388 8.59915 3.64762 9.16581 3.64945L10.8658 3.65495C13.1325 3.66227 13.6973 4.23077 13.69 6.49742L13.6861 7.69075" stroke="#262626" stroke-width="1.5" stroke-miterlimit="10" stroke-linecap="round" stroke-linejoin="round"/>
<path d="M6.30172 11.3535L9.72837 11.3646" stroke="#262626" stroke-width="1.5" stroke-miterlimit="10" stroke-linecap="round" stroke-linejoin="round"/>
</svg>
