<svg width="17" height="17" viewBox="0 0 17 17" fill="none" xmlns="http://www.w3.org/2000/svg">
<path d="M12.0354 4.81219C11.9955 4.8054 11.9488 4.80525 11.9088 4.81178C10.9889 4.77548 10.258 4.01978 10.261 3.08645C10.2641 2.13312 11.0332 1.36893 11.9866 1.37201C12.9399 1.3751 13.704 2.1509 13.701 3.09757C13.6913 4.03087 12.9555 4.78183 12.0354 4.81219Z" stroke="#202020" stroke-width="1.5" stroke-linecap="round" stroke-linejoin="round"/>
<path d="M11.3326 9.66336C12.2454 9.81965 13.2526 9.6629 13.9608 9.19185C14.9028 8.56823 14.9061 7.54157 13.9681 6.91187C13.2563 6.43623 12.2369 6.27293 11.323 6.42998" stroke="#202020" stroke-width="1.5" stroke-linecap="round" stroke-linejoin="round"/>
<path d="M4.017 4.78617C4.05702 4.77963 4.10368 4.77978 4.14366 4.78658C5.06376 4.75622 5.79953 4.00526 5.80255 3.07193C5.80563 2.1186 5.04144 1.34946 4.08812 1.34638C3.13479 1.3433 2.36562 2.11415 2.36256 3.06081C2.36621 3.99416 3.09711 4.74986 4.017 4.78617Z" stroke="#202020" stroke-width="1.5" stroke-linecap="round" stroke-linejoin="round"/>
<path d="M4.68717 9.64184C3.77335 9.79222 2.76721 9.62897 2.06207 9.15335C1.1241 8.52365 1.12742 7.49699 2.06944 6.87336C2.7843 6.40234 3.80481 6.24563 4.71762 6.40858" stroke="#202020" stroke-width="1.5" stroke-linecap="round" stroke-linejoin="round"/>
<path d="M8.02176 9.77923C7.98178 9.77244 7.93512 9.77229 7.89509 9.77882C6.97521 9.74252 6.24431 8.98682 6.24733 8.05349C6.25041 7.10016 7.01955 6.33597 7.97288 6.33906C8.92621 6.34214 9.69037 7.11795 9.68731 8.06461C9.67763 8.99791 8.94184 9.75554 8.02176 9.77923Z" stroke="#202020" stroke-width="1.5" stroke-linecap="round" stroke-linejoin="round"/>
<path d="M6.07336 11.8729C5.13134 12.4965 5.12802 13.5231 6.06599 14.1528C7.13035 14.8696 8.877 14.8753 9.94597 14.1654C10.888 13.5418 10.8913 12.5151 9.95334 11.8854C8.89563 11.1753 7.1423 11.1696 6.07336 11.8729Z" stroke="#202020" stroke-width="1.5" stroke-linecap="round" stroke-linejoin="round"/>
</svg>
