<svg width="23" height="22" viewBox="0 0 23 22" fill="none" xmlns="http://www.w3.org/2000/svg">
<path fill-rule="evenodd" clip-rule="evenodd" d="M5.44796 10.2433L7.26395 4.79536H9.61287L11.4289 10.2433L16.8768 12.0593V14.4082L11.4289 16.2242L9.61287 21.6722H7.26395L5.44796 16.2242L0 14.4082V12.0593L5.44796 10.2433ZM8.43841 9.1017L7.60113 11.6135L6.81816 12.3965L4.30635 13.2338L6.81816 14.071L7.60113 14.854L8.43841 17.3658L9.27568 14.854L10.0587 14.071L12.5705 13.2338L10.0587 12.3965L9.27568 11.6135L8.43841 9.1017Z" fill="#2F327D"/>
<path fill-rule="evenodd" clip-rule="evenodd" d="M16.6718 2.89738L17.6376 0H19.047L20.0128 2.89738L22.9102 3.86317V5.27252L20.0128 6.23832L19.047 9.1357H17.6376L16.6718 6.23832L13.7745 5.27252V3.86317L16.6718 2.89738Z" fill="#2F327D"/>
</svg>
